<svg width="139" height="50" viewBox="0 0 139 50" fill="none" xmlns="http://www.w3.org/2000/svg">
<path d="M41.8524 50H0V8.11191H41.8524V50ZM0.66846 49.3315H41.1839V8.78037H0.66846V49.3315Z" fill="#191919"/>
<path d="M45.6361 45.7664H3.78589V3.87833H45.6361V45.7664ZM4.45225 45.0979H44.9677V4.54679H4.45225V45.0979Z" fill="#191919"/>
<path d="M49.6425 41.8902H7.79224V0H49.6425V41.8902ZM8.4607 41.2217H48.9761V0.66846H8.4607V41.2217Z" fill="#191919"/>
<path d="M13.4238 27.2787H22.6793V36.5362H13.4238V27.2787Z" fill="#191919"/>
<path d="M77.9546 17.212V19.276H67.9466V24.124H76.1306V26.14H67.9466V32.788H65.6426V17.212H77.9546Z" fill="#191919"/>
<path d="M93.318 17.212L87.39 27.58V32.788H85.086V27.58L79.158 17.212H81.798L86.838 26.308H85.734L90.678 17.212H93.318Z" fill="#191919"/>
<path d="M98.0638 17.212V30.724H107.232V32.788H95.7598V17.212H98.0638Z" fill="#191919"/>
<path d="M112.618 17.212V30.724H121.786V32.788H110.314V17.212H112.618Z" fill="#191919"/>
<path d="M126.813 28.924V26.86H135.165V28.924H126.813ZM123.429 32.788L129.789 17.212H132.237L138.645 32.788H136.149L130.581 18.724H131.445L125.901 32.788H123.429Z" fill="#191919"/>
</svg>
